<svg xmlns="http://www.w3.org/2000/svg" viewBox="0 0 9 9" width="9" height="9">
	<style>
		tspan { white-space:pre }
		.shp0 { fill: #000000 } 
	</style>
	<g id="Layer_x0020_1">
		<path id="Layer" fill-rule="evenodd" class="shp0" d="M3.5 2.15C3.7 2.15 3.86 2.31 3.86 2.51C3.86 2.71 3.7 2.87 3.5 2.87L1.38 2.87L1.35 2.87L1.29 2.87L1.28 2.87C1.26 2.87 1.24 2.86 1.22 2.85L1.22 2.85L1.18 2.83L1.16 2.82L1.16 2.82C1.06 2.75 0.99 2.64 0.99 2.52L0.99 2.51L0.99 2.51L0.99 0.36C0.99 0.16 1.15 0 1.35 0L1.35 0C1.55 0 1.71 0.16 1.71 0.36L1.71 1.48C2.44 0.77 3.43 0.36 4.46 0.36C6.63 0.36 8.4 2.12 8.4 4.3C8.4 6.47 6.64 8.24 4.46 8.24C3.05 8.24 1.75 7.49 1.05 6.27C1.02 6.22 1.01 6.16 1.01 6.1C1.01 5.9 1.17 5.74 1.37 5.74C1.49 5.74 1.61 5.8 1.67 5.91C2.24 6.91 3.31 7.52 4.46 7.52C6.24 7.52 7.68 6.08 7.68 4.3C7.68 2.52 6.24 1.08 4.46 1.08C3.55 1.08 2.67 1.47 2.06 2.15L3.5 2.15L3.5 2.15L3.5 2.15Z" />
	</g>
</svg>