<svg xmlns="http://www.w3.org/2000/svg" viewBox="0 0 5 5" width="5" height="5">
	<style>
		tspan { white-space:pre }
		.shp0 { fill: #000000 } 
	</style>
	<g id="Layer_x0020_1">
		<g id="_1786866298320">
			<path id="Layer" fill-rule="evenodd" class="shp0" d="M3.45 0C4.22 0.01 4.84 0.62 4.84 1.39C4.84 1.76 4.7 2.11 4.43 2.38L2.57 4.23C2.48 4.32 2.34 4.32 2.25 4.23L0.41 2.38C-0.14 1.83 -0.14 0.95 0.41 0.4C0.97 -0.16 1.89 -0.13 2.42 0.44C2.68 0.16 3.05 0 3.45 0ZM3.45 -0.01L3.44 -0.01C3.44 -0.01 3.45 -0.01 3.45 -0.01ZM4.1 2.07C4.28 1.89 4.38 1.65 4.38 1.4C4.38 0.88 3.96 0.46 3.44 0.46C3.09 0.46 2.78 0.64 2.62 0.94C2.54 1.1 2.31 1.1 2.22 0.94C1.91 0.38 1.16 0.3 0.73 0.73C0.36 1.1 0.36 1.69 0.73 2.06L2.42 3.75L4.12 2.06L4.1 2.07Z" />
		</g>
	</g>
</svg>