<svg xmlns="http://www.w3.org/2000/svg" viewBox="0 0 5 6" width="5" height="6">
	<style>
		tspan { white-space:pre }
		.shp0 { fill: #2b2a29 } 
	</style>
	<g id="Layer_x0020_1">
		<path id="Layer" class="shp0" d="M4.26 3.32C4.75 3.81 4.99 4.45 4.99 5.08L4.99 5.08C4.99 5.1 4.99 5.13 4.99 5.15L4.47 5.15C4.47 5.13 4.47 5.1 4.47 5.08L4.47 5.08C4.47 4.57 4.28 4.07 3.89 3.68C3.5 3.29 3 3.1 2.49 3.1C1.98 3.1 1.48 3.29 1.09 3.68C0.7 4.07 0.51 4.57 0.51 5.08C0.51 5.1 0.51 5.13 0.51 5.15L-0.01 5.15C-0.01 5.13 -0.01 5.1 -0.01 5.08C-0.01 4.44 0.23 3.8 0.72 3.32C1.21 2.83 1.85 2.59 2.48 2.59C3.12 2.59 3.76 2.83 4.24 3.32L4.26 3.32Z" />
		<path id="Layer" fill-rule="evenodd" class="shp0" d="M3.8 1.31C3.8 1.64 3.67 1.98 3.42 2.23C3.17 2.48 2.83 2.61 2.5 2.61C2.17 2.61 1.83 2.48 1.58 2.23C1.33 1.98 1.2 1.64 1.2 1.31C1.2 0.98 1.33 0.64 1.58 0.39C1.83 0.14 2.17 0.01 2.5 0.01C2.83 0.01 3.17 0.14 3.42 0.39C3.67 0.64 3.8 0.98 3.8 1.31ZM3.28 1.31C3.28 1.11 3.2 0.91 3.05 0.76C2.9 0.61 2.7 0.53 2.5 0.53C2.3 0.53 2.1 0.61 1.95 0.76C1.8 0.91 1.72 1.11 1.72 1.31C1.72 1.51 1.8 1.71 1.95 1.86C2.1 2.01 2.3 2.09 2.5 2.09C2.7 2.09 2.9 2.01 3.05 1.86C3.2 1.71 3.28 1.51 3.28 1.31Z" />
	</g>
</svg>